<?xml version="1.0" encoding="utf-8"?>
<!-- Generator: Adobe Illustrator 16.0.3, SVG Export Plug-In . SVG Version: 6.00 Build 0)  -->
<!DOCTYPE svg PUBLIC "-//W3C//DTD SVG 1.1//EN" "http://www.w3.org/Graphics/SVG/1.1/DTD/svg11.dtd">
<svg version="1.1" id="レイヤー_1" xmlns="http://www.w3.org/2000/svg" xmlns:xlink="http://www.w3.org/1999/xlink" x="0px"
	 y="0px" width="323.572px" height="112.677px" viewBox="0 0 323.572 112.677" enable-background="new 0 0 323.572 112.677"
	 xml:space="preserve">
<g>
	<path fill="none" stroke="#000000" stroke-width="0.25" stroke-linecap="round" stroke-linejoin="round" d="M316.771,99.921
		h-39.685V60.235h39.685V99.921z"/>
	<path fill="none" stroke="#000000" stroke-width="0.25" stroke-linecap="round" stroke-linejoin="round" d="M316.771,46.063
		h-39.685V6.378h39.685V46.063z"/>
	<path fill="none" stroke="#000000" stroke-width="0.25" stroke-linecap="round" stroke-linejoin="round" d="M262.912,99.921
		h-39.685V60.235h39.685V99.921z"/>
	<path fill="none" stroke="#000000" stroke-width="0.25" stroke-linecap="round" stroke-linejoin="round" d="M262.912,46.062
		h-39.685V6.376h39.685l0.001,0.003v39.679L262.912,46.062z"/>
	<path fill="none" stroke="#000000" stroke-width="0.25" stroke-linecap="round" stroke-linejoin="round" d="M209.053,99.921
		h-39.684V60.235h39.684V99.921z"/>
	<path fill="none" stroke="#000000" stroke-width="0.25" stroke-linecap="round" stroke-linejoin="round" d="M209.053,46.062
		h-39.684V6.376h39.684V46.062z"/>
	<path fill="none" stroke="#000000" stroke-width="0.25" stroke-linecap="round" stroke-linejoin="round" d="M155.196,99.921
		h-39.685V60.235h39.685V99.921z"/>
	<path fill="none" stroke="#000000" stroke-width="0.25" stroke-linecap="round" stroke-linejoin="round" d="M155.196,46.063
		h-39.685V6.378h39.685V46.063z"/>
	<path fill="none" stroke="#000000" stroke-width="0.25" stroke-linecap="round" stroke-linejoin="round" d="M101.338,99.921H61.654
		V60.235h39.684V99.921z"/>
	<path fill="none" stroke="#000000" stroke-width="0.25" stroke-linecap="round" stroke-linejoin="round" d="M47.479,99.921H7.794
		V60.235h39.685V99.921z"/>
	<path fill="none" stroke="#000000" stroke-width="0.25" stroke-linecap="round" stroke-linejoin="round" d="M101.338,46.062H61.654
		V6.376h39.684V46.062z"/>
	<path fill="none" stroke="#000000" stroke-width="0.25" stroke-linecap="round" stroke-linejoin="round" d="M47.479,46.062H7.794
		V6.376h39.685V46.062z"/>
</g>
<path fill="none" stroke="#000000" stroke-width="0.25" stroke-linecap="round" stroke-linejoin="round" d="M0,109.843V2.834
	L2.834,0h317.905l2.833,2.834v107.008l-2.833,2.834H2.834L0,109.843z"/>
<g>
	
		<circle fill="none" stroke="#000000" stroke-width="0.25" stroke-linecap="round" stroke-linejoin="round" cx="269.998" cy="53.149" r="2.835"/>
	
		<circle fill="none" stroke="#000000" stroke-width="0.25" stroke-linecap="round" stroke-linejoin="round" cx="162.283" cy="53.149" r="2.835"/>
	
		<circle fill="none" stroke="#000000" stroke-width="0.25" stroke-linecap="round" stroke-linejoin="round" cx="54.567" cy="53.149" r="2.834"/>
</g>
</svg>
